<?xml version="1.0" encoding="UTF-8" standalone="no"?>
<!-- Created with Inkscape (http://www.inkscape.org/) -->

<svg
   width="67.804863mm"
   height="123.31865mm"
   viewBox="0 0 67.804863 123.31865"
   version="1.1"
   id="svg5"
   xmlns:inkscape="http://www.inkscape.org/namespaces/inkscape"
   xmlns:sodipodi="http://sodipodi.sourceforge.net/DTD/sodipodi-0.dtd"
   xmlns="http://www.w3.org/2000/svg"
   xmlns:svg="http://www.w3.org/2000/svg">
  <sodipodi:namedview
     id="namedview7"
     pagecolor="#ffffff"
     bordercolor="#000000"
     borderopacity="0.25"
     inkscape:showpageshadow="2"
     inkscape:pageopacity="0.0"
     inkscape:pagecheckerboard="0"
     inkscape:deskcolor="#d1d1d1"
     inkscape:document-units="mm"
     showgrid="false" />
  <defs
     id="defs2" />
  <g
     inkscape:label="Livello 1"
     inkscape:groupmode="layer"
     id="layer1"
     transform="translate(-31.090174,-32.39154)">
    <g
       id="g1035"
       style="opacity:0.3"
       inkscape:export-filename="g10.svg"
       inkscape:export-xdpi="96"
       inkscape:export-ydpi="96"
       transform="matrix(0.46642065,0,0,1.214163,16.589075,-6.9370694)">
      <rect
         style="opacity:1;fill:#000080;stroke-width:0.264583"
         id="rect236"
         width="145.03676"
         height="101.52572"
         x="31.424631"
         y="32.391541"
         inkscape:export-filename="rect236.svg"
         inkscape:export-xdpi="96"
         inkscape:export-ydpi="96" />
      <path
         style="opacity:1;fill:#00ffff;stroke-width:0.264583"
         id="path615"
         d="m 112.41499,76.60723 c 1.29974,-0.12015 2.60342,-0.199829 3.90538,-0.290571 0,0 -2.2e-4,-6.9e-5 -2.2e-4,-6.9e-5 v 0 c -1.30196,0.09074 -2.60566,0.170418 -3.90541,0.290563 0,0 2.5e-4,7.7e-5 2.5e-4,7.7e-5 z" />
      <path
         style="opacity:1;fill:#00ffff;stroke-width:0.264583"
         id="path617"
         d="m 127.18782,82.430315 c -0.0765,0.143883 -0.1668,0.28126 -0.22958,0.431649 -0.60914,1.459111 -1.00388,2.997533 -1.2719,4.55318 -0.0978,0.567457 -0.15588,1.141039 -0.23382,1.711558 0,0 2.2e-4,4e-5 2.2e-4,4e-5 v 0 c 0.0779,-0.570519 0.13605,-1.144101 0.23382,-1.711558 0.26802,-1.555647 0.66278,-3.094064 1.27193,-4.553167 0.0628,-0.150389 0.15305,-0.287766 0.22958,-0.431647 0,0 -2.5e-4,-5.5e-5 -2.5e-4,-5.5e-5 z" />
      <path
         style="opacity:1;fill:#00ffff;stroke-width:0.264583"
         id="path621"
         d="m 59.755285,38.674934 c 3.069344,0.745305 6.342928,1.410531 9.21743,2.754849 1.126019,0.526609 2.209165,1.152232 3.238338,1.849393 2.40107,1.626478 3.105074,2.557288 5.064319,4.588856 1.667935,1.885363 2.976057,4.03007 4.215399,6.208469 0.01016,0.01789 1.658276,3.013218 1.76235,3.191489 0.235538,0.403461 0.492755,0.793867 0.739132,1.1908 0.730007,0.980591 1.59303,1.97917 2.758967,2.453828 0.706448,0.287596 1.301276,0.255518 2.093317,0.331716 2.750404,-0.236374 5.484802,-0.617196 8.24874,-0.688737 2.397056,-0.06204 3.088773,0.01969 5.450043,0.144296 0.7916,0.09025 1.58954,0.136072 2.37481,0.270756 2.00233,0.343424 3.97165,1.133554 5.64012,2.294601 1.29001,0.897694 1.6056,1.371426 2.62522,2.502832 1.03869,1.33065 1.77891,2.864717 2.1212,4.51993 0.13022,0.62975 0.13598,0.925361 0.18515,1.54578 0.0231,1.088001 -0.19645,2.160283 -0.33415,3.23519 -0.0735,0.592061 -0.0747,1.189641 -0.23736,1.766387 -0.67304,1.181963 -1.5861,1.422853 -2.85623,1.795653 -1.13543,0.333259 -1.81639,0.444614 -2.96941,0.676495 -1.46635,0.247266 -2.93702,0.475779 -4.32829,1.02925 -1.44444,0.574617 -2.98978,1.395704 -4.26866,2.26059 -0.756274,0.51145 -1.451059,1.10839 -2.176586,1.662583 -0.611736,0.662165 -1.302819,1.258999 -1.835209,1.986489 -0.901509,1.231884 -1.837303,3.252801 -2.176084,4.752523 -0.200967,0.889645 -0.29215,1.806747 -0.309271,2.718649 -0.04682,2.493867 0.382505,4.105487 0.830167,6.574899 1.025525,4.68975 2.538323,10.35362 0.221441,14.93462 -1.759998,3.47992 -3.238956,3.84667 -6.442573,6.04588 -1.796034,0.71883 -3.552526,1.54567 -5.388104,2.15649 -1.905088,0.63396 -3.858467,1.11975 -5.814785,1.57149 -5.331831,1.2312 -10.780168,1.82681 -16.22575,2.25608 -1.403824,0.11066 -2.810344,0.18397 -4.215514,0.27596 -1.206481,0.0618 -5.016598,0.22507 -6.365499,0.40538 -0.823688,0.1101 -1.630109,0.32416 -2.445163,0.48624 0,0 0.389112,0.11801 0.389112,0.11801 v 0 c 0.809676,-0.16211 1.61077,-0.37536 2.429023,-0.48634 1.327902,-0.18011 5.133028,-0.35561 6.318229,-0.41986 1.396415,-0.095 2.794191,-0.17183 4.189243,-0.28511 5.433566,-0.4412 10.868126,-1.04189 16.188568,-2.27273 1.958846,-0.45316 3.914635,-0.94005 5.823188,-1.57239 1.846379,-0.61175 3.615481,-1.43586 5.423221,-2.15378 3.227101,-2.20052 4.717454,-2.5624 6.488731,-6.05913 2.316975,-4.57402 0.801111,-10.26183 -0.209502,-14.94978 -0.438682,-2.475262 -0.856734,-4.063096 -0.802307,-6.559288 0.01982,-0.908733 0.113162,-1.822212 0.313886,-2.70872 0.341715,-1.509207 1.258459,-3.497299 2.167594,-4.737584 0.531629,-0.725273 1.22147,-1.32008 1.832205,-1.980121 0.726456,-0.552312 1.421459,-1.14864 2.179369,-1.656934 1.30162,-0.872943 2.83337,-1.669775 4.30052,-2.241913 1.39509,-0.544038 2.86775,-0.768797 4.33344,-1.022781 1.14976,-0.233516 1.83978,-0.348747 2.97283,-0.681286 1.27301,-0.373621 2.23577,-0.637238 2.9098,-1.829562 0.16466,-0.579205 0.16166,-1.179547 0.23259,-1.774685 0.134,-1.078923 0.35112,-2.155322 0.32514,-3.246686 -0.0528,-0.621702 -0.0609,-0.924586 -0.19428,-1.554996 -0.35196,-1.663261 -1.10014,-3.207374 -2.14648,-4.544517 -1.0236,-1.135447 -1.34419,-1.614173 -2.63712,-2.516834 -2.6441,-1.845976 -5.65342,-2.46944 -8.81665,-2.71345 -2.368161,-0.121875 -3.043689,-0.200882 -5.449876,-0.13979 -2.7832,0.07066 -5.536922,0.451684 -8.308742,0.664086 -0.170355,0.0073 -0.34216,0.04522 -0.511067,0.02191 -1.049822,-0.144978 -2.024562,-0.931812 -2.712225,-1.686054 -0.267531,-0.293434 -0.496012,-0.620226 -0.744016,-0.930336 -0.249801,-0.396544 -0.510649,-0.786342 -0.749404,-1.18963 -0.238722,-0.403238 -1.619469,-2.907813 -1.783818,-3.194693 -1.251225,-2.184069 -2.569601,-4.33438 -4.252637,-6.221368 -1.964828,-2.031711 -2.680025,-2.969691 -5.080918,-4.600408 -1.028205,-0.698373 -2.109663,-1.326568 -3.234603,-1.8552 -2.85492,-1.34158 -6.075616,-1.996805 -9.119549,-2.758813 0,0 -0.461,-0.0089 -0.461,-0.0089 z" />
      <path
         style="opacity:1;fill:#00ffff;stroke-width:0.264583"
         id="path623"
         d="m 43.002004,32.729628 c 1.165482,1.625402 6.870094,10.663104 7.959439,12.298737 2.297004,3.367069 4.567663,6.774249 7.223948,9.875907 0.685202,0.800084 1.387684,1.588447 2.144365,2.321295 1.963526,1.901685 2.368606,1.993408 4.667859,3.451246 0.948163,0.451609 1.878428,0.94289 2.844488,1.354825 3.215399,1.371077 6.582404,2.355295 9.926404,3.349871 4.801301,1.428015 1.700493,0.485656 6.194243,1.867371 2.350053,0.843259 5.141073,1.564394 6.68166,3.723352 0.584795,0.819526 0.558562,1.130199 0.756298,2.056535 -0.024,0.322508 -0.0039,0.651364 -0.07196,0.967528 -0.151003,0.701784 -0.544042,1.395547 -0.924695,1.987595 -0.790856,1.230056 -1.788205,2.272258 -2.789555,3.328204 -1.344864,1.35172 -2.797281,2.587779 -4.369549,3.667138 -1.182687,0.811914 -1.587534,1.031714 -2.84508,1.794333 -0.785313,0.471512 -2.229853,1.302327 -2.965064,1.882807 -0.391065,0.308761 -0.790474,0.624996 -1.089062,1.023884 -0.603866,0.806718 -0.807225,1.73807 -0.890857,2.716179 -0.04139,0.484031 0.0044,0.971581 0.0067,1.457372 0.301127,3.111871 1.207762,6.133346 1.445159,9.254623 0.04767,0.62682 0.03843,1.25667 0.05765,1.88501 -0.146182,1.5157 -0.09542,2.19475 -0.705924,3.62667 -0.926579,2.17326 -2.698829,3.94558 -4.565454,5.33239 -0.802442,0.59618 -1.679387,1.0849 -2.519082,1.62736 -2.965074,1.61749 -6.132282,2.82621 -9.42254,3.59316 -3.491577,0.81388 -7.069124,1.1828 -10.62659,1.55624 -7.226804,0.40501 -13.748713,0.394 -17.38538,1.0394 l 0.380164,0.11628 v 0 c 6.133117,-0.61891 9.943397,-0.34317 17.361081,-1.04418 3.555745,-0.37814 7.135341,-0.75018 10.625661,-1.56313 3.296883,-0.76789 6.468343,-1.98525 9.441981,-3.59943 0.843934,-0.54323 1.724973,-1.03275 2.531804,-1.6297 1.878748,-1.39004 3.666566,-3.16529 4.60035,-5.3491 0.614502,-1.43712 0.562424,-2.1189 0.707905,-3.64016 -0.01992,-0.62973 -0.01138,-1.261 -0.05979,-1.88918 -0.240157,-3.116631 -1.136465,-6.137559 -1.427054,-9.2468 -0.0026,-0.483142 -0.04891,-0.968018 -0.0079,-1.449422 0.08261,-0.969446 0.285467,-1.889474 0.883571,-2.688635 0.296513,-0.396189 0.691764,-0.711713 1.07977,-1.018854 0.745061,-0.589778 2.164373,-1.403427 2.961529,-1.881532 1.254307,-0.756848 1.678304,-0.986478 2.857695,-1.794605 1.575001,-1.079201 3.025529,-2.319782 4.368739,-3.675991 1.004359,-1.059127 2.009069,-2.103816 2.805057,-3.335758 0.387075,-0.59907 0.783312,-1.295337 0.935818,-2.00633 0.06875,-0.320538 0.04776,-0.653913 0.07164,-0.980869 -0.20129,-0.937398 -0.175517,-1.252802 -0.767424,-2.081943 -1.554779,-2.177928 -4.369829,-2.902553 -6.742308,-3.748974 -4.544997,-1.392163 -1.363742,-0.428008 -6.211546,-1.86817 -3.339867,-0.99219 -6.70142,-1.974506 -9.912646,-3.343579 -0.963131,-0.41062 -1.890819,-0.899848 -2.836228,-1.349772 -2.297983,-1.451993 -2.708947,-1.548818 -4.677756,-3.441932 -0.761712,-0.732425 -1.469748,-1.520249 -2.1604,-2.320031 -2.675493,-3.098242 -4.966896,-6.503326 -7.27144,-9.877287 -1.07631,-1.619065 -6.796857,-10.687541 -7.946363,-12.29937 l -0.329331,-0.03058 z"
         sodipodi:nodetypes="ccsscsscsccscscssscscsscscccccscsscsccsscscsscscsscsscccc" />
      <path
         style="opacity:1;fill:#00ffff;stroke-width:0.264583"
         id="path625"
         d="m 48.126439,128.40906 c -0.376496,0.15277 -2.006236,0.62804 -2.381841,0.78298 -1.444747,0.59599 -2.271102,0.93573 -3.732295,1.63365 -2.333754,1.11469 -1.387377,0.70178 -3.644511,1.96135 l -1.750099,0.9999 0.409988,0.10994 v 0 c 0,0 1.156551,-0.66901 1.734827,-1.00352 1.591149,-0.89325 -0.358079,0.0567 1.276162,-0.78532 2.368021,-1.22005 6.053952,-2.6307 8.547753,-3.56736 z"
         sodipodi:nodetypes="csscccscscc" />
      <path
         style="opacity:1;fill:#00ffff;stroke-width:0.264583"
         id="path633"
         d="m 51.375221,32.534085 c 0.355285,0.324998 1.746084,1.546968 2.109381,1.862984 1.48059,1.242007 3.079721,2.332825 4.728289,3.337599 0.607402,0.367062 1.231228,0.707319 1.880836,0.99359 0.231807,0.106929 0.47612,0.178178 0.721677,0.244605 l 0.487085,0.01283 v 0 c -0.24978,-0.0672 -0.501465,-0.129217 -0.737656,-0.238157 -0.665001,-0.283697 -1.304078,-0.623094 -1.926928,-0.989817 -1.683136,-1.001617 -3.326331,-2.077759 -4.830144,-3.337509 -0.363894,-0.315495 -1.756189,-1.535927 -2.111172,-1.861415 z"
         sodipodi:nodetypes="ccccccsccccc" />
      <path
         style="opacity:1;fill:#00ffff;stroke-width:0.264583"
         id="path743"
         d="m 32.270943,32.443619 c 0.482161,0.585389 0.809448,1.143653 1.240314,1.76776 1.726573,2.714908 3.112891,5.620517 4.497371,8.518151 1.482299,3.102362 0.579213,1.239396 2.11029,4.364869 1.503326,2.994332 3.170815,5.905309 5.370402,8.449714 1.530344,1.770251 2.012963,2.108661 3.737213,3.661699 2.411293,1.948817 5.175268,3.35539 8.099454,4.354319 1.301914,0.444746 2.000533,0.600554 3.302079,0.936392 2.286222,0.55944 4.625094,0.869945 6.914039,1.416889 1.739204,0.415584 1.874263,0.502888 3.541749,1.066837 1.145138,0.491442 1.903929,0.746154 2.930499,1.463691 0.859329,0.600641 1.70225,1.433451 2.352519,2.253644 0.83059,1.047636 0.901131,1.33853 1.473478,2.499074 0.109357,0.389583 0.26738,0.768686 0.32807,1.168752 0.142089,0.936636 -0.06997,1.951278 -0.601404,2.737342 -0.423669,0.626666 -0.675441,0.720519 -1.287727,1.157232 -1.380318,0.701725 -2.875716,1.160732 -4.376642,1.528188 -0.446074,0.09745 -0.903417,0.204042 -1.308023,0.424321 -0.172829,0.09409 -0.336791,0.203623 -0.505188,0.305435 -1.398238,1.119655 -2.413904,2.643505 -3.0256,4.320913 -0.137586,0.37729 -0.236355,0.767625 -0.354531,1.15144 -0.545013,2.186194 -0.485156,4.448497 -0.639069,6.678575 -0.03712,0.537872 -0.09466,1.074142 -0.141997,1.611212 -0.273428,1.812454 -0.440203,3.834286 -1.813541,5.230635 -0.567537,0.577047 -1.273784,1.008607 -1.975991,1.411077 -1.917999,1.09932 -3.042052,1.29771 -5.159425,1.9308 -0.992449,0.18374 -1.977612,0.4125 -2.977348,0.55122 -2.22644,0.30893 -4.852768,0.44155 -7.088643,0.50909 -3.493579,0.10553 -6.990646,0.0385 -10.484286,-0.0157 -3.660905,-0.0995 -1.881333,-0.04 -5.338831,-0.17484 l 0.370874,0.12207 v 0 c 3.439988,0.12854 1.669706,0.0724 5.310963,0.16477 3.487303,0.048 6.978054,0.11228 10.465149,0.007 2.221958,-0.0669 4.902684,-0.19984 7.116601,-0.50542 1.002755,-0.1384 1.990698,-0.36853 2.986048,-0.5528 2.127321,-0.63643 3.251774,-0.83523 5.180049,-1.93821 0.709777,-0.406 1.424795,-0.83963 1.999067,-1.421719 1.380006,-1.398793 1.548197,-3.43078 1.832862,-5.247195 0.0507,-0.537149 0.112715,-1.073348 0.152109,-1.611445 0.162935,-2.22559 0.08759,-4.485499 0.645194,-6.666211 0.117449,-0.382397 0.214813,-0.771549 0.352343,-1.147191 0.516385,-1.410414 1.328859,-2.72079 2.415156,-3.765185 0.196631,-0.189045 0.420701,-0.347295 0.63105,-0.520943 0.170733,-0.09926 0.337024,-0.206595 0.512204,-0.297781 0.4064,-0.211545 0.862502,-0.311531 1.304407,-0.416605 1.49474,-0.381627 2.984598,-0.847175 4.360881,-1.551003 0.618453,-0.446162 0.869683,-0.539697 1.294614,-1.178264 0.531553,-0.798796 0.73868,-1.827109 0.591786,-2.773339 -0.0626,-0.403259 -0.222938,-0.785143 -0.334407,-1.177716 C 77.700366,72.079637 77.627741,71.78642 76.794912,70.733162 76.150376,69.918036 75.294629,69.065207 74.44329,68.466175 73.415048,67.742669 72.653977,67.487698 71.504791,66.993737 69.84054,66.429328 69.693556,66.337858 67.958697,65.921857 65.67461,65.374159 63.340588,65.062136 61.058096,64.507069 59.749073,64.172913 59.045371,64.017825 57.735993,63.574492 54.804323,62.581876 52.031592,61.181706 49.612663,59.233881 47.891279,57.688378 47.398199,57.342716 45.872717,55.578456 43.676122,53.03803 42.013965,50.125655 40.509629,47.137906 38.389901,42.8027 36.452952,38.362693 33.910333,34.24992 c -0.426204,-0.6247 -0.778906,-1.159851 -1.22633,-1.76953 l -0.41306,-0.03677 z"
         sodipodi:nodetypes="ccscscscscsscssccscscscsscsscccsccscsscscsscsccsscsscscscsccccc" />
      <path
         style="opacity:1;fill:#00ffff;stroke-width:0.264583"
         id="path745"
         d="m 59.806418,67.796262 c 1.111234,0.200782 4.861902,0.699676 5.985256,0.783319 0.155848,0.02265 0.313077,0.03725 0.467548,0.06791 0.06431,0.01275 0.123844,0.0432 0.186667,0.06195 0.266983,0.07966 0.537347,0.148119 0.802637,0.23324 0.481282,0.154427 1.27145,0.440688 1.728652,0.653921 0.282443,0.131728 0.551294,0.290824 0.826942,0.436237 1.068504,0.652375 2.029265,1.5607 2.508986,2.742644 0.06845,0.168643 0.108484,0.347464 0.162724,0.521198 0.01939,0.173825 0.05436,0.346614 0.05819,0.521477 0.01384,0.630338 -0.157604,1.35717 -0.504423,1.888858 -0.09308,0.142701 -0.214696,0.264602 -0.322043,0.396904 -0.161573,0.120333 -0.308856,0.262718 -0.484716,0.360998 -0.23164,0.129447 -0.48146,0.22452 -0.729893,0.31777 -1.186196,0.445235 -2.45813,0.628115 -3.702823,0.828603 -1.487117,0.187381 -2.975615,0.370501 -4.468582,0.50433 -1.139023,0.04622 -2.364703,0.28157 -3.466928,-0.130841 -1.10255,-0.412533 -1.008623,-0.435573 -1.949437,-1.102067 -0.954823,-0.812924 -1.782712,-1.828247 -2.045832,-3.084107 -0.03406,-0.162579 -0.04288,-0.329438 -0.06432,-0.49416 -0.02795,-0.621321 0.06687,-1.242788 0.439446,-1.758122 0.201938,-0.279312 0.377918,-0.410403 0.633005,-0.636627 0.631399,-0.501335 1.397619,-0.769601 2.055916,-1.228492 0.348197,-0.224473 0.642993,-0.499838 0.872373,-0.842558 0.111202,-0.234413 0.133999,-0.492741 0.253122,-0.724363 0.209553,-0.215709 0.505603,-0.293621 0.795332,-0.323453 l -0.46909,-0.146071 v 0 c -0.30071,0.0432 -0.605933,0.129934 -0.81117,0.369303 -0.114491,0.23115 -0.139264,0.487137 -0.251402,0.718505 -0.225605,0.336463 -0.517422,0.605459 -0.858335,0.827056 -0.660627,0.455011 -1.427707,0.725603 -2.053167,1.235334 -0.257534,0.232053 -0.433802,0.36536 -0.636918,0.651362 -0.37374,0.526256 -0.469339,1.158454 -0.442269,1.789448 0.02172,0.167161 0.03043,0.33654 0.06521,0.501481 0.267309,1.26764 1.105265,2.294895 2.067248,3.117506 0.746501,0.535583 1.047766,0.841478 1.949064,1.119949 1.429813,0.441767 2.889789,0.426009 4.359441,0.27999 1.493023,-0.131344 2.981405,-0.314023 4.467485,-0.508182 1.246624,-0.204645 2.523064,-0.388808 3.710434,-0.838497 0.252307,-0.09556 0.506013,-0.193164 0.740799,-0.326077 0.178726,-0.101177 0.327671,-0.247693 0.491506,-0.371541 0.108289,-0.135491 0.230822,-0.260734 0.324863,-0.406472 0.349692,-0.541922 0.521095,-1.275818 0.507955,-1.916337 -0.0037,-0.177893 -0.03856,-0.353767 -0.05784,-0.530649 -0.05463,-0.176331 -0.09469,-0.357851 -0.16388,-0.528992 -0.35805,-0.885613 -1.028499,-1.689838 -1.776132,-2.27277 -0.2359,-0.183936 -0.496827,-0.333301 -0.745239,-0.499952 -0.275521,-0.146928 -0.544052,-0.307787 -0.826558,-0.440782 -1.289759,-0.607174 -2.690945,-0.999049 -4.100579,-1.186733 -1.118441,-0.08079 -4.863656,-0.583125 -5.969736,-0.782949 z"
         sodipodi:nodetypes="ccscsscsccscssccscscsccccccsccccscscsccsscsccsscsccc" />
      <path
         style="opacity:1;fill:#00ffff;stroke-width:0.264583"
         id="path747"
         d="m 62.175474,72.302115 c 0.889508,0.04081 1.798116,0.0024 2.675549,0.186441 0.02775,0.0058 0.03556,0.04723 0.06142,0.05887 0.130201,0.05857 0.267615,0.09956 0.401423,0.149344 0.265065,0.109318 2.471913,0.650603 2.132794,0.949235 -0.31591,0.278194 -2.740633,0.887272 -3.117545,1.035293 -0.929108,0.265858 -1.673848,0.02247 -2.632246,0.155518 -0.382825,0.05314 -1.229104,-0.09844 -1.62986,-0.224618 -0.105347,-0.06645 -0.516237,-0.232831 -0.423918,-0.484955 0.184399,-0.503589 2.248608,-1.71908 2.660212,-1.852652 l -0.440364,-0.127924 v 0 c 0,0 -2.51185,1.369859 -2.702406,1.920256 -0.09625,0.278011 0.2974,0.446617 0.429898,0.536512 0.329282,0.05843 0.767426,0.250428 1.099814,0.287263 0.479536,0.05314 0.978957,0.147064 1.445661,0.08032 0.961366,-0.137554 1.708932,0.103964 2.641683,-0.162371 0.395121,-0.155442 2.825045,-0.761448 3.147533,-1.061404 0.347765,-0.323469 -1.827239,-0.906346 -2.130368,-1.033193 -1.304531,-0.494993 -2.701023,-0.539104 -4.080568,-0.561829 l 0.461285,0.149881 z"
         sodipodi:nodetypes="scccscscsccsscsccscccs" />
      <path
         style="opacity:1;fill:#00ffff;stroke-width:0.264583"
         id="path749"
         d="m 31.612875,42.34829 c 0,0.04451 3.038969,2.857288 4.440631,4.647602 0.366061,0.467558 0.695068,0.96298 1.042604,1.444469 0.970412,1.477655 1.813358,3.053429 2.382265,4.731594 0.2051,0.605006 0.241774,0.821973 0.378757,1.413197 0.17958,0.767099 0.247581,1.549789 0.264049,2.335173 0.02164,0.638553 0.07131,1.225275 0.268031,1.835124 0.299839,0.926779 0.811572,1.758508 1.380746,2.541531 0.274569,0.331534 0.533093,0.69038 0.876522,0.956527 0.192665,0.14931 0.357376,0.241218 0.565894,0.368147 0.513707,0.32585 1.077217,0.55699 1.622716,0.822097 0.98176,0.514517 2.001136,1.008486 2.811629,1.783647 0.591738,0.565943 0.745802,0.852797 1.211072,1.514636 0.36539,0.690076 1.137896,2.055302 0.745469,2.871208 -0.328184,0.682339 -0.887193,0.770043 -1.533933,1.071454 -0.531214,0.110919 -1.056666,0.254363 -1.593646,0.332753 -0.645274,0.0942 -1.296871,0.142447 -1.947645,0.184227 -2.606321,0.167333 -9.748202,-0.13605 -12.348895,-0.302157 l 0.390041,0.129503 v 0 c 0,0 9.745495,0.465188 12.354152,0.296998 0.655698,-0.04228 1.312312,-0.0899 1.962517,-0.184555 0.544873,-0.07932 1.078127,-0.224396 1.617189,-0.336593 0.675828,-0.318889 1.226423,-0.399695 1.564153,-1.111443 0.395457,-0.833395 -0.381431,-2.201844 -0.753448,-2.907509 -0.45911,-0.657119 -0.626348,-0.962503 -1.208257,-1.526881 -0.802629,-0.778449 -1.81637,-1.271415 -2.790071,-1.793298 -0.541327,-0.270029 -1.104762,-0.495927 -1.618858,-0.817732 -0.203314,-0.122057 -0.374671,-0.217292 -0.563777,-0.359942 -0.346469,-0.26135 -0.60742,-0.61732 -0.884489,-0.946097 -0.573503,-0.774401 -1.082897,-1.602147 -1.37873,-2.525683 -0.189813,-0.592886 -0.249727,-1.199248 -0.267589,-1.820884 -0.01783,-0.790188 -0.09032,-1.576874 -0.277429,-2.347304 -0.141859,-0.588221 -0.184619,-0.820719 -0.39293,-1.421066 -0.58378,-1.68243 -1.440572,-3.261596 -2.41513,-4.746794 -0.348054,-0.482611 -0.678006,-0.978808 -1.044157,-1.447835 -1.387883,-1.777817 -2.68806,-3.145848 -4.366275,-4.6453 l -0.493178,-0.03881 z"
         sodipodi:nodetypes="cscsccccsccscscssccssscscsccsccccscsccc" />
      <path
         style="opacity:1;fill:#00ffff;stroke-width:0.264583"
         id="path751"
         d="m 32.57854,80.487022 c 2.268868,0.03839 4.537321,0.113061 6.80413,0.21659 3.284027,0.16501 6.569343,0.261387 9.856962,0.312283 1.565207,0.0199 3.130347,0.02413 4.695368,0.05661 0.219744,0.0046 1.948084,0.03864 2.23644,0.07196 0.191429,0.02212 0.373783,0.09395 0.560674,0.140925 0.312454,0.142605 0.655915,0.23096 0.937363,0.427812 0.316156,0.221131 0.58176,0.511543 0.829059,0.807683 0.852035,1.020323 1.279752,2.253679 1.490768,3.549814 0.08217,0.504743 0.103711,1.017506 0.155564,1.526257 0.06039,2.224691 -0.484351,4.380021 -1.62656,6.294631 -0.603189,1.011089 -0.970277,1.351203 -1.7277,2.208104 -0.311896,0.264054 -0.602274,0.55586 -0.935686,0.792165 -1.182611,0.838173 -2.683542,1.36684 -4.118472,1.534422 -0.445117,0.05199 -0.894572,0.05536 -1.341856,0.08303 -4.241853,-0.09169 -8.469598,-0.490807 -12.70772,-0.673002 -3.630795,-0.195167 -5.407749,-0.264319 -6.014254,-0.150736 l 0.392346,0.119523 v 0 c 3.52724,0.0157 1.781864,-0.02754 5.979267,0.149439 1.377119,0.05916 4.328689,0.240205 5.697302,0.324729 1.194673,0.07378 3.891876,0.253764 5.160465,0.309396 0.637294,0.02795 1.275297,0.03623 1.912943,0.05434 0.451694,-0.02825 0.905663,-0.03136 1.355077,-0.08475 1.437185,-0.170728 2.938849,-0.712722 4.118213,-1.558706 0.332809,-0.23873 0.622101,-0.532926 0.933154,-0.79939 0.75534,-0.865924 1.114776,-1.202982 1.717024,-2.221627 1.137769,-1.924429 1.690383,-4.086027 1.634812,-6.318107 -0.05008,-0.5103 -0.07037,-1.024406 -0.150238,-1.530901 -0.206269,-1.308137 -0.627711,-2.537555 -1.476404,-3.573669 -0.245766,-0.300042 -0.50727,-0.597058 -0.822529,-0.822978 -0.28018,-0.200782 -0.624551,-0.291872 -0.936828,-0.437809 -0.482587,-0.09764 -0.959795,-0.227237 -1.447761,-0.292925 -0.226679,-0.03051 -2.074185,-0.06374 -2.223233,-0.06651 -1.558306,-0.02896 -3.11672,-0.02999 -4.675145,-0.04992 -3.297272,-0.05029 -6.591826,-0.153763 -9.885254,-0.322924 -2.278758,-0.101188 -4.558924,-0.172702 -6.839291,-0.225888 l 0.462,0.150114 z"
         sodipodi:nodetypes="scccscssscscssccccccsscsscscssscssccccs" />
      <path
         style="opacity:1;fill:#00ffff;stroke-width:0.264583"
         id="path753"
         d="m 32.425523,112.85534 c 3.883361,-0.11707 2.102252,-0.283 5.979792,-0.52004 4.835994,-0.33744 9.716781,-0.52606 14.504787,-1.33912 0.786304,-0.13352 1.564492,-0.31108 2.346737,-0.46662 3.005299,-0.82531 6.193277,-1.65934 8.828299,-3.39674 1.64764,-1.08637 2.000248,-1.6072 3.343865,-3.00716 1.459175,-1.7983 2.557413,-3.82518 3.205975,-6.047482 0.278842,-0.955458 0.295492,-1.211726 0.4552,-2.158916 0.231971,-1.472215 0.184105,-2.971395 0.367469,-4.448516 0.0361,-0.29083 0.09115,-0.578993 0.136729,-0.868489 0.085,-0.320059 0.145089,-0.647788 0.254984,-0.960171 0.617797,-1.756095 1.717366,-3.293242 3.014676,-4.611523 0.313843,-0.318913 0.657344,-0.607219 0.986015,-0.910828 1.560062,-1.333381 3.369177,-2.311112 5.192037,-3.229666 0.322054,-0.178019 0.584534,-0.289729 0.841201,-0.565044 0.674063,-0.723027 1.016248,-1.900772 1.326713,-2.816095 0.351454,-1.155179 0.602454,-2.383414 0.422802,-3.59551 -0.11557,-0.779749 -0.25535,-0.999715 -0.548664,-1.713929 C 82.942619,71.962115 82.832508,71.702934 82.659579,71.487362 82.210306,70.9273 81.623224,70.540146 81.012923,70.178651 79.77516,69.445488 78.527517,68.974392 77.186802,68.473684 74.023034,67.384112 70.745579,66.598019 67.662509,65.278639 67.018042,65.002846 66.393766,64.682078 65.759393,64.383797 65.123707,64.021279 64.466263,63.694497 63.852334,63.296241 61.290453,61.634343 59.145053,59.489469 57.144284,57.19995 56.344377,56.2846 55.572368,55.344271 54.826958,54.384019 54.053853,53.388095 53.336001,52.350484 52.590522,51.333717 48.359697,45.277854 45.27283,39.035821 41.763267,32.555887 l -0.364167,-0.0392 c 0.491575,0.898274 0.818732,1.388376 1.304811,2.289637 3.015991,5.592098 5.892281,11.284513 9.552921,16.495969 0.743466,1.017217 1.459172,2.055315 2.230395,3.051654 0.743741,0.960832 1.516031,1.900118 2.312702,2.81754 1.985253,2.286161 4.101796,4.439941 6.648609,6.103763 0.612055,0.399851 1.268611,0.727048 1.902915,1.09057 0.633727,0.299233 1.257175,0.621276 1.901177,0.897697 3.075035,1.319873 6.346406,2.103829 9.502108,3.194714 1.328102,0.496146 2.582251,0.970245 3.809354,1.694058 0.597151,0.352229 1.190519,0.741659 1.633998,1.287388 0.173432,0.213416 0.285057,0.470363 0.427585,0.705543 0.295921,0.708811 0.435721,0.923558 0.552196,1.698972 0.181166,1.206101 -0.06932,2.428774 -0.421521,3.577553 -0.316785,0.928981 -0.639776,2.058032 -1.33655,2.786499 -0.249254,0.260591 -0.524963,0.384649 -0.833158,0.557215 -1.810742,0.931961 -3.613028,1.915319 -5.165473,3.249613 -0.327485,0.305255 -0.66947,0.595664 -0.982459,0.915767 -1.296966,1.326447 -2.407367,2.870372 -3.038282,4.628037 -0.112461,0.313306 -0.173852,0.642662 -0.260778,0.96399 -0.04657,0.290426 -0.103384,0.579393 -0.139714,0.871276 -0.183716,1.47597 -0.129624,2.974808 -0.358108,4.446553 -0.150413,0.927835 -0.172003,1.220219 -0.43797,2.155198 -0.630957,2.218057 -1.716855,4.242957 -3.167512,6.036347 -1.349399,1.40617 -1.680924,1.90649 -3.337624,2.99622 -2.644087,1.73921 -5.807154,2.5626 -8.820692,3.3862 -0.779748,0.15557 -1.555504,0.3327 -2.339245,0.4667 -4.791246,0.81919 -9.665149,1.0158 -14.506085,1.33534 -3.904371,0.23135 -2.150026,0.40297 -6.060783,0.49437 z"
         sodipodi:nodetypes="ccscscscscssccscscsscscssscccscssscscsscscsccsscscscscsccc" />
      <path
         style="opacity:1;fill:#00ffff;stroke-width:0.264583"
         id="path755"
         d="m 32.765027,86.896496 c 1.640398,-0.527161 2.89548,-1.428677 4.594846,-1.667787 1.347491,-0.185478 2.697191,-0.360119 4.051405,-0.489667 0.784556,-0.07505 1.495783,-0.150407 2.281674,-0.09784 0.29408,0.01966 0.583518,0.08356 0.875277,0.125344 1.361458,0.92893 3.022703,1.297037 4.649374,1.383342 0.387588,0.02056 0.775769,-0.02778 1.163651,-0.04166 1.192601,-0.128961 2.366274,-0.38453 3.554156,-0.54528 0.559588,-0.07573 1.345451,-0.182965 1.921817,-0.09126 0.124341,0.01979 0.223125,0.116718 0.334687,0.175077 0.211653,0.179483 0.445519,0.335656 0.634955,0.538446 0.783669,0.838922 1.123429,1.981432 1.28125,3.087325 -0.0031,0.336126 0.03887,0.568753 -0.146296,0.876829 -0.58238,0.968944 -2.041366,1.272757 -3.022454,1.561145 -1.882463,0.467103 -3.827926,0.621874 -5.759659,0.436887 -1.038154,-0.09941 -1.660242,-0.234386 -2.636692,-0.418189 -1.127115,-0.219713 -1.922053,-0.383839 -3.078666,-0.566791 -0.847021,-0.133982 -1.367779,-0.208436 -2.222111,-0.160562 -0.984869,0.05519 -1.141288,0.154125 -2.086694,0.418018 -1.308905,0.415866 -2.582566,0.999397 -3.951888,1.198089 -0.251664,0.03652 -0.506302,0.06958 -0.760458,0.061 -0.22888,-0.0077 -0.452162,-0.07304 -0.678243,-0.109553 -0.04455,-0.06405 -0.0789,-0.13656 -0.133649,-0.192149 -0.150096,-0.152416 -0.331965,-0.271946 -0.477642,-0.428593 -0.473951,-0.50964 -0.723712,-1.134282 -0.921353,-1.787451 -0.130419,-0.496861 -0.147984,-1.009811 -0.137353,-1.520174 -0.01453,-0.322318 0.06024,-0.634947 0.108664,-0.951124 0.01114,-0.232916 0.0736,-0.435422 0.185738,-0.636469 0.09748,-0.102015 0.226401,-0.162287 0.348191,-0.229237 L 32.2624,86.696071 v 0 c -0.128773,0.07239 -0.263785,0.137002 -0.358056,0.255112 -0.114144,0.206115 -0.174831,0.416856 -0.186637,0.654195 -0.04862,0.318402 -0.123896,0.633196 -0.108783,0.957816 -0.0073,0.516104 0.01185,1.034568 0.145015,1.536702 0.203251,0.661773 0.4552,1.291754 0.929193,1.813902 0.14583,0.160647 0.285359,0.341262 0.477139,0.442719 0.327388,0.173199 0.69967,0.243284 1.049504,0.364924 0.2262,0.03267 0.450104,0.09321 0.678601,0.098 0.253153,0.0053 0.506307,-0.02948 0.756584,-0.0679 1.365488,-0.209624 2.635559,-0.794583 3.945374,-1.20324 0.943523,-0.257744 1.100751,-0.355401 2.082265,-0.406088 1.501445,-0.07753 2.972308,0.317453 4.436491,0.579083 1.122614,0.204367 2.336115,0.454658 3.480607,0.561658 1.938679,0.181253 3.891592,0.02244 5.780321,-0.446008 1.00652,-0.295752 2.4712,-0.601163 3.062948,-1.597745 0.19035,-0.320569 0.146315,-0.550521 0.147974,-0.89875 -0.164782,-1.117753 -0.511688,-2.265595 -1.291775,-3.122258 -0.189302,-0.20788 -0.422312,-0.371282 -0.633466,-0.556924 -0.412128,-0.110945 -0.815115,-0.264348 -1.236382,-0.332838 -0.545301,-0.08865 -1.389581,0.02994 -1.913469,0.102344 -1.186474,0.16397 -2.359803,0.417248 -3.552325,0.540041 -0.353536,0.01087 -1.397299,0.07356 -1.857044,0.0024 -0.771469,-0.119602 -1.281742,-0.279995 -1.986261,-0.589002 -0.255583,-0.112102 -0.486336,-0.278175 -0.746594,-0.378944 -0.401553,-0.155475 -0.821587,-0.258194 -1.232381,-0.387292 -0.290079,-0.03902 -0.57807,-0.09957 -0.870239,-0.117044 -0.781566,-0.04675 -1.489212,0.03095 -2.269066,0.106921 -1.356522,0.132159 -2.709199,0.303607 -4.059373,0.488672 -1.714767,0.238702 -2.983573,1.142388 -4.640841,1.665977 l 0.473303,0.134109 z"
         sodipodi:nodetypes="ccsscscsscscscscsscsccssccccccsccccsscsscscscscscssccsscsscccc" />
      <path
         style="opacity:1;fill:#00ffff;stroke-width:0.264583"
         id="path757"
         d="m 36.880495,88.614418 c 0.699503,-0.217641 1.386994,-0.47983 2.105882,-0.630848 0.56483,-0.118658 1.057641,-0.172377 1.629503,-0.247703 0.735753,-0.08065 1.461966,-0.125807 2.192118,0.02252 0.08571,0.01741 0.161494,0.06817 0.245345,0.09305 0.655723,0.194614 0.982115,0.257143 1.663396,0.41317 0.985623,0.195525 1.977835,0.425675 2.988718,0.423511 0.834149,-0.0019 1.67577,-0.137181 2.501661,-0.238797 0.656069,-0.04587 1.33608,-0.191783 1.994617,-0.06862 0.02567,0.0048 0.0021,0.05951 0.02344,0.07472 0.872406,0.625414 -0.05321,-0.174361 0.628121,0.439216 0.04952,0.07596 0.123526,0.140734 0.148545,0.227893 0.154491,0.538163 -1.335622,0.61313 -1.600393,0.632 -1.648539,-0.01495 -3.295092,-0.125934 -4.938427,-0.251142 -1.559866,-0.129654 -3.123422,-0.200592 -4.687858,-0.241099 -1.116655,0.0093 -2.232133,0.06538 -3.348387,0.09405 -0.427902,0.01532 -0.852053,-0.03087 -1.27722,-0.06352 -0.05503,-0.0042 0.211746,0.05027 0.164023,0.02254 -0.07803,-0.04532 -0.174739,-0.04629 -0.25927,-0.07787 -0.07029,-0.02625 -0.135983,-0.06347 -0.203973,-0.09521 -0.180189,-0.09479 0.100615,-0.372254 0.02354,-0.562195 l -0.492853,-0.06008 v 0 c 0,0 -0.207705,0.496463 -0.02028,0.60024 0.773596,0.385852 1.676159,0.368046 2.520746,0.3825 1.11397,-0.03025 2.227278,-0.08636 3.341717,-0.09362 1.560962,0.03925 3.120982,0.11085 4.677349,0.240083 1.648931,0.124095 3.301063,0.2385 4.95519,0.249163 0.323702,-0.02564 1.792735,-0.104767 1.631524,-0.727001 -0.02373,-0.09162 -0.100316,-0.160536 -0.150476,-0.240802 -0.08598,-0.08018 -0.162806,-0.171482 -0.257956,-0.240541 -0.949087,-0.688851 -2.234874,-0.487622 -3.315401,-0.378873 -0.825209,0.101812 -1.664999,0.233434 -2.498672,0.230934 -0.7083,-0.0021 -1.399664,-0.107609 -2.087814,-0.267139 -0.294888,-0.06723 -0.591171,-0.128614 -0.884666,-0.201684 -0.866396,-0.215705 -1.732042,-0.510535 -2.631217,-0.557895 -0.409975,-0.02159 -1.091478,0.0501 -1.488102,0.08303 -0.566198,0.07561 -1.078082,0.133078 -1.637617,0.251069 -0.724794,0.152839 -1.417691,0.419999 -2.127187,0.626575 l 0.472327,0.138388 z"
         sodipodi:nodetypes="sscsccccsccscccccsscccscccccscscccsscsccs" />
      <path
         style="opacity:1;fill:#00ffff;stroke-width:0.264583"
         id="path759"
         d="m 32.119726,128.76148 c 0.242945,0 0.412308,-0.25787 0.626999,-0.37158 1.292466,-0.68455 2.433164,-1.20723 3.804595,-1.78844 1.503237,-0.54918 1.367102,-0.28001 5.312338,-1.22633 4.879229,-0.97164 9.819132,-1.60665 14.774193,-2.02958 1.674368,-0.14291 2.882913,-0.21133 4.533394,-0.3158 2.309008,-0.0855 4.612317,-0.31588 6.865006,-0.84516 0.519766,-0.12212 1.039765,-0.24849 1.547088,-0.41491 0.54084,-0.17741 1.061963,-0.41007 1.592942,-0.6151 0.521685,-0.28245 1.070745,-0.51932 1.565053,-0.84733 2.371423,-1.57358 4.986333,-3.74416 6.458427,-6.14226 0.366091,-0.59638 0.692502,-1.21622 1.038751,-1.82433 1.118892,-2.13329 1.347888,-4.77095 1.827434,-7.1394 0.259353,-1.28093 0.376725,-2.42668 0.536443,-3.71907 0.179001,-1.44198 0.258826,-2.893168 0.393287,-4.339277 0.03904,-0.419878 0.159634,-1.624008 0.250865,-2.061287 0.07433,-0.356269 0.190635,-0.702471 0.285951,-1.053708 0.176919,-0.401593 0.318844,-0.820503 0.53076,-1.204781 0.254635,-0.46174 0.557141,-0.896305 0.864285,-1.324911 0.966838,-1.349193 2.11614,-2.574092 3.35004,-3.681323 0.414335,-0.3718 0.852358,-0.71633 1.278536,-1.074494 3.066401,-2.339737 6.530924,-4.055745 9.979874,-5.745027 1.723653,-0.827598 3.442223,-1.664756 5.129753,-2.564257 0.83423,-0.44467 2.25633,-1.213207 3.06591,-1.733902 0.42425,-0.272857 0.82361,-0.58261 1.23541,-0.873914 1.00869,-0.861491 2.24343,-2.020451 1.78246,-3.50875 -0.23232,-0.750049 -0.7053,-1.195441 -1.19117,-1.786904 -0.33218,-0.310223 -0.63579,-0.654187 -0.99653,-0.930671 -0.99531,-0.762836 -2.45116,-1.563937 -3.55126,-2.105581 -0.71112,-0.350123 -1.42468,-0.701656 -2.16804,-0.97677 -1.84247,-0.681879 -3.497054,-1.011206 -5.401668,-1.460971 -3.269803,-0.713841 -6.592538,-1.098299 -9.917626,-1.432825 -0.418973,-0.0781 -0.854429,-0.04545 -1.274003,-0.115882 -0.01106,-0.0019 0.04186,-0.0081 0.03138,-0.01206 -0.211068,-0.08004 -0.427204,-0.146026 -0.640805,-0.219041 -0.342778,-0.165615 -0.694285,-0.314266 -1.028337,-0.496847 -0.949132,-0.518761 -2.320671,-1.408462 -3.180395,-1.978972 -1.85397,-1.230292 -3.648985,-2.536193 -5.436097,-3.860533 -4.626412,-3.614653 -9.190382,-7.310713 -13.686449,-11.08637 -2.37926,-1.946783 -4.597638,-4.076089 -6.89665,-6.113595 -1.102677,-0.977251 -1.552599,-1.338005 -2.672942,-2.271416 -1.746155,-1.342014 -3.8712,-3.306324 -5.329633,-4.966836 l -0.500049,0.05711 c 1.455597,1.664128 3.651518,3.54591 5.405298,4.88023 1.149516,0.954421 1.547579,1.270839 2.680806,2.270254 2.31481,2.041483 4.556294,4.166974 6.949826,6.118855 2.481548,2.077207 4.983766,4.124817 7.498286,6.161892 0.725697,0.587901 3.473971,2.829962 4.319514,3.500792 0.605274,0.480208 1.219591,0.948907 1.829387,1.423358 1.785927,1.324599 3.582281,2.626264 5.430996,3.862744 0.845384,0.565417 2.20589,1.460704 3.138006,1.981949 0.327578,0.183184 0.672039,0.334391 1.008057,0.501584 0.210312,0.07488 0.414914,0.168304 0.630934,0.224639 0.714748,0.186394 1.436933,0.222628 2.167329,0.287406 3.048137,0.294709 6.098283,0.620787 9.094901,1.274805 1.907267,0.448609 3.539724,0.770348 5.383804,1.452954 0.74119,0.27436 1.45301,0.624152 2.16188,0.973632 1.09799,0.541322 2.52279,1.329436 3.51401,2.092394 0.35737,0.275082 0.65877,0.616101 0.98815,0.92415 0.47872,0.580874 0.94817,1.023681 1.18158,1.759077 0.46556,1.466818 -0.75354,2.614218 -1.74539,3.467738 -0.40889,0.290827 -0.80522,0.600173 -1.22666,0.872482 -0.82383,0.532307 -2.20749,1.279818 -3.05872,1.73356 -1.68506,0.898203 -3.39975,1.737699 -5.12008,2.565787 -3.456995,1.688364 -6.925111,3.410331 -9.999509,5.750443 -0.426601,0.359026 -0.865306,0.704144 -1.2798,1.077079 -1.235419,1.111549 -2.382948,2.340335 -3.355189,3.690054 -0.310308,0.430787 -0.618122,0.866013 -0.877107,1.329473 -0.2155,0.385646 -0.361146,0.806365 -0.541718,1.209548 -0.09713,0.352891 -0.216625,0.700373 -0.291402,1.058667 -0.06761,0.323979 -0.09646,0.654952 -0.134831,0.983678 -0.210447,1.802971 -0.246044,3.622193 -0.473602,5.423761 -0.166698,1.37735 -0.256117,2.34519 -0.537311,3.71379 -0.48514,2.36122 -0.702222,4.99873 -1.811884,7.13082 -0.344212,0.60766 -0.668091,1.22728 -1.032637,1.82296 -1.482241,2.42202 -4.070509,4.54042 -6.472571,6.11778 -0.495451,0.32535 -1.044385,0.56085 -1.566577,0.84127 -0.532072,0.20316 -1.054674,0.43311 -1.596218,0.60948 -0.506526,0.16497 -1.025171,0.29152 -1.543812,0.41315 -2.246855,0.52693 -4.544261,0.75108 -6.846403,0.84498 -6.448113,0.42901 -12.886151,1.10118 -19.22852,2.37633 -1.767639,0.50203 -3.681099,0.50741 -5.377235,1.21431 -1.346737,0.5616 -2.58863,1.11711 -3.879937,1.77258 -0.222943,0.11316 -0.435824,0.24515 -0.653735,0.36772 l 0.478562,0.12493 z"
         sodipodi:nodetypes="ssccscssccscscsscsssccsscscssscccccssccsccccscsscsscsccssscscssccssscsscscsscsscccsccs" />
      <path
         style="opacity:1;fill:#00ffff;stroke-width:0.264583"
         id="path761"
         d="m 31.418166,49.440178 c 0.484669,0.860353 -0.319441,0.01067 0.784335,1.174057 0.25423,0.26796 0.463939,0.574892 0.695909,0.862341 0.954524,1.354357 1.390269,2.739207 1.594639,4.3585 0.06589,0.617233 0.04485,1.252003 0.230785,1.851488 0.181711,0.585853 0.318844,0.771898 0.617411,1.329523 0.497522,0.805243 1.129159,1.510186 1.791811,2.181037 0.370507,0.375095 0.860949,0.813758 1.217374,1.207193 0.176282,0.194585 0.33478,0.404569 0.502172,0.606851 0.609144,0.971304 1.109675,2.055194 1.16787,3.214606 -0.01632,0.09418 -0.01638,0.19269 -0.049,0.282546 -0.160456,0.442142 -0.699111,0.614232 -1.093475,0.745146 -0.671385,0.222869 -1.071808,0.280291 -1.776137,0.423211 -0.419934,0.05675 -0.838383,0.125849 -1.259803,0.170249 -1.096804,0.115552 -2.402102,0.186648 -3.49718,0.243758 -2.016821,0.105175 1.205984,-0.01693 -0.81205,0.05934 l 0.393995,0.126357 v 0 c 0,0 -1.200515,0.04542 0.818462,-0.05813 1.042585,-0.05347 2.472396,-0.131828 3.521112,-0.239681 0.425918,-0.0438 0.84886,-0.112858 1.273288,-0.169285 0.690619,-0.140526 1.131335,-0.206394 1.791661,-0.42766 0.417793,-0.139993 0.957141,-0.322789 1.120055,-0.789058 0.0327,-0.09361 0.03211,-0.195697 0.04816,-0.293545 -0.06652,-1.17026 -0.575138,-2.26174 -1.183193,-3.246916 -0.167846,-0.203706 -0.326435,-0.41541 -0.503541,-0.611117 -0.37251,-0.41163 -0.833144,-0.814757 -1.223153,-1.206851 -0.661898,-0.665435 -1.290233,-1.366608 -1.785782,-2.167896 -0.293957,-0.551177 -0.430143,-0.736399 -0.607652,-1.315288 -0.183513,-0.598467 -0.159282,-1.23244 -0.232331,-1.84748 -0.213728,-1.627209 -0.656667,-3.024701 -1.615733,-4.386598 -0.232016,-0.289846 -0.441683,-0.599094 -0.69605,-0.869538 -1.093857,-1.162973 -0.498321,-0.468856 -0.752466,-1.191044 l -0.481494,-0.01611 z"
         sodipodi:nodetypes="csccscsscccscssccssscssccsscscccccc" />
      <path
         style="opacity:1;fill:#00ffff;stroke-width:0.264583"
         id="path763"
         d="m 146.7969,32.503778 c 0.76135,2.258505 0.52965,1.817813 0.81339,4.172006 0.11807,1.667587 0.2656,3.444481 -0.40409,5.034611 -0.40092,0.951939 -1.06614,1.700289 -1.81465,2.38669 -0.33751,0.309502 -0.71828,0.568243 -1.07742,0.852366 -1.74191,1.095473 -3.48303,2.185135 -5.0541,3.522398 -0.36225,0.308337 -0.72394,0.619381 -1.05557,0.960432 -0.30081,0.309348 -0.55856,0.657825 -0.83784,0.986737 -0.76039,1.013195 -1.38328,2.161328 -1.56724,3.432334 -0.10176,0.703095 -0.0326,0.869979 0.0537,1.576112 0.12239,0.317489 0.21135,0.649978 0.36717,0.952465 1.29095,2.506073 3.7694,4.034256 6.06357,5.499976 1.96657,1.200219 4.06216,2.251819 5.73491,3.869817 0.40196,0.388811 0.79221,0.795668 1.12217,1.247193 0.31383,0.429443 0.5325,0.920919 0.79875,1.381379 0.13019,0.541885 0.31393,1.073647 0.39057,1.625658 0.14316,1.031052 0.0638,2.250652 -0.0691,3.27818 -0.0679,0.524695 -0.18182,1.042395 -0.27273,1.563595 -0.0969,0.527132 -0.22174,1.049887 -0.29072,1.581396 -0.0707,0.544801 -0.0852,1.095436 -0.12778,1.643152 0.10544,0.619318 0.14584,1.253297 0.31633,1.857952 0.35721,1.266941 1.16937,2.976697 2.02304,3.964175 2.80237,3.241614 6.97551,5.127395 10.67793,7.064269 6.06214,2.767303 7.84345,3.914771 13.448,5.720468 l 0.40273,0.01249 v 0 c -5.95047,-1.906566 -8.60171,-3.363495 -13.57319,-5.719545 -3.6883,-1.93833 -7.78009,-3.792728 -10.56102,-7.03766 -0.84586,-0.986986 -1.65081,-2.682759 -2.00348,-3.945691 -0.16781,-0.600901 -0.20527,-1.230781 -0.3079,-1.84617 0.0429,-0.546159 0.0577,-1.09524 0.12865,-1.638472 0.0694,-0.531598 0.1944,-1.054442 0.29161,-1.581664 0.0908,-0.522496 0.20497,-1.041466 0.27241,-1.567489 0.13146,-1.025411 0.20835,-2.263717 0.0683,-3.292073 -0.0757,-0.55568 -0.25719,-1.091732 -0.38578,-1.637599 -0.26713,-0.463534 -0.48639,-0.958167 -0.80139,-1.390599 -0.33043,-0.453629 -0.72166,-0.862307 -1.12439,-1.253168 -1.67191,-1.622626 -3.76619,-2.682131 -5.73966,-3.875823 -2.28369,-1.454121 -4.75102,-2.972609 -6.02933,-5.468998 -0.15292,-0.298654 -0.23983,-0.626742 -0.35974,-0.940115 -0.0858,-0.697071 -0.15405,-0.865727 -0.0564,-1.560301 0.17762,-1.263054 0.79288,-2.404758 1.54227,-3.415217 0.27696,-0.327531 0.53261,-0.674339 0.83087,-0.982591 0.32936,-0.340395 0.68797,-0.651828 1.04817,-0.959401 1.57466,-1.344583 3.31958,-2.415373 5.06287,-3.520027 0.35814,-0.286475 0.73802,-0.547701 1.07441,-0.859425 0.74893,-0.694018 1.41485,-1.450512 1.81443,-2.40897 0.66587,-1.597234 0.51518,-3.380126 0.3926,-5.052663 -0.28325,-2.337935 -0.0529,-1.921987 -0.76198,-4.17701 z"
         sodipodi:nodetypes="ccsscsscscscsscsccscsscccccsscscsscsscscccsscssccc" />
      <path
         style="opacity:1;fill:#00ffff;stroke-width:0.264583"
         id="path765"
         d="m 149.55434,47.473301 c -1.42356,0.138781 -2.88875,0.120988 -4.27615,0.513109 -0.28292,0.07996 -0.55439,0.195977 -0.83159,0.293965 -0.80383,0.386657 -1.62884,0.868299 -2.07736,1.674828 -0.2319,0.417021 -0.31685,0.783556 -0.45343,1.234784 -0.18056,0.720238 -0.29366,1.473086 -0.0907,2.203384 0.16251,0.584668 0.2746,0.677437 0.60222,1.214641 1.05288,1.477772 2.39948,2.717541 3.8122,3.843716 1.30577,0.94488 2.69556,1.77995 4.15751,2.460591 0.40063,0.18652 0.80244,0.37275 1.21688,0.526171 0.39299,0.145487 0.80115,0.246132 1.20173,0.369197 1.64957,0.346229 3.55605,0.628068 5.03981,-0.401 0.18794,-0.130347 0.33689,-0.309443 0.50534,-0.464166 0.10045,-0.176197 0.2407,-0.335053 0.30136,-0.52859 0.15196,-0.48487 0.036,-1.180071 -0.0111,-1.640806 -0.0412,-0.402256 -0.0963,-0.803013 -0.13626,-1.205388 -0.14031,-1.413277 -0.10564,-1.076391 -0.12003,-2.48988 -0.0505,-0.998437 0.18345,-1.989299 0.14743,-2.986662 -0.01,-0.266988 -0.0201,-0.539237 -0.0941,-0.795943 -0.19973,-0.692746 -0.42608,-0.784236 -0.92606,-1.274792 -1.26499,-0.913873 -2.75631,-1.229704 -4.27823,-1.403472 -0.72797,-0.03959 -1.45377,-0.06477 -2.17428,-0.181742 0.0304,0.0019 0.1209,0.01246 0.0912,0.0057 -0.42319,-0.09592 -0.85465,-0.731824 -1.281,-0.812551 -0.0361,-0.0069 0.1454,0.01939 0.11,0.0094 -0.10302,-0.02919 -0.2094,-0.04479 -0.3141,-0.06718 l -0.48585,-0.01024 v 0 c 0,0 1.38491,0.841476 2.33783,1.031769 0.71927,0.112506 1.44359,0.134379 2.16939,0.177914 0.19997,0.02357 0.40301,0.02933 0.5997,0.07245 0.98777,0.216548 1.93443,0.54203 2.76249,1.142301 0.4951,0.47281 0.72702,0.566986 0.92861,1.243261 0.0757,0.254111 0.0877,0.524396 0.0988,0.789324 0.0419,0.998283 -0.18653,1.991952 -0.13219,2.991188 0.0149,1.467004 -0.0203,1.027901 0.118,2.494008 0.0378,0.401309 0.0886,0.801333 0.12587,1.202695 0.04,0.431009 0.14614,1.14903 5.3e-4,1.610373 -0.0596,0.188614 -0.19649,0.343358 -0.29473,0.515038 -0.1661,0.151186 -0.31308,0.32652 -0.4983,0.453557 -0.75719,0.519324 -1.54434,0.623197 -2.43161,0.705424 -0.19625,0.01818 -0.3939,0.05754 -0.59004,0.03822 -0.37893,-0.03733 -0.74891,-0.138015 -1.12337,-0.207021 -0.40163,-0.121456 -0.81091,-0.220008 -1.20488,-0.364373 -0.41529,-0.152175 -0.81785,-0.337775 -1.2191,-0.523843 -1.45622,-0.67528 -2.83767,-1.509668 -4.13729,-2.449955 -1.41023,-1.120714 -2.75934,-2.351069 -3.80664,-3.82693 -0.32468,-0.530331 -0.4338,-0.619215 -0.5959,-1.19625 -0.20288,-0.722204 -0.0939,-1.468536 0.0825,-2.182064 0.13797,-0.455732 0.21496,-0.799669 0.45193,-1.219486 0.44804,-0.793763 1.26353,-1.269992 2.05895,-1.649825 0.27616,-0.09629 0.54675,-0.210325 0.82846,-0.288859 1.39837,-0.389834 2.87377,-0.372247 4.30827,-0.49979 l -0.47262,-0.146179 z"
         sodipodi:nodetypes="sscscsccsscscsccccsccccccccsccscccccsccssscssccscscsccs" />
      <path
         style="opacity:1;fill:#00ffff;stroke-width:0.264583"
         id="path767"
         d="m 152.13274,52.173753 c -1.35317,-0.12156 -2.7295,-0.215133 -4.0724,0.05577 -0.1946,0.03926 -0.38323,0.103825 -0.57484,0.155737 -0.11817,0.07763 -0.26285,0.125219 -0.3545,0.232875 -0.57125,0.67105 1.01678,1.63059 1.40863,1.892565 0.21731,0.124174 0.43265,0.251865 0.65192,0.372523 1.16989,0.643728 0.29532,0.127468 1.51157,0.820666 0.66016,0.376256 1.29733,0.774393 1.97639,1.115938 0.32972,0.0551 0.65489,0.161348 0.98916,0.165304 0.73139,0.0087 1.24179,-0.979067 1.50835,-1.531448 0.17645,-0.457568 0.36027,-0.923798 0.36643,-1.41936 -0.008,-0.04616 -0.004,-0.09609 -0.0244,-0.138475 -0.12973,-0.274778 -0.6408,-0.371147 -0.87098,-0.438341 -0.56781,-0.165751 -1.74456,-0.972931 -2.33145,-1.109665 l -0.46238,-0.01058 v 0 c 0,0 1.71791,0.933087 2.31655,1.105355 0.18688,0.05378 0.72985,0.155591 0.8589,0.38522 0.0215,0.03831 0.018,0.08602 0.027,0.129027 -0.001,0.488534 -0.18155,0.948301 -0.35337,1.399855 -0.23462,0.489288 -0.51834,1.085421 -1.03046,1.34566 -0.17101,0.0869 -0.34294,0.11118 -0.52172,0.139245 -0.19159,-0.09437 -0.3872,-0.180996 -0.57478,-0.283102 -0.47991,-0.261231 -0.9385,-0.559996 -1.41281,-0.831273 -1.15181,-0.658773 -0.39481,-0.210489 -1.5053,-0.819835 -0.21844,-0.119867 -0.43333,-0.246102 -0.64999,-0.369152 -0.34637,-0.229656 -1.94547,-1.189133 -1.41117,-1.797868 0.0897,-0.102182 0.22874,-0.147021 0.34312,-0.220533 0.18889,-0.05082 0.37487,-0.114067 0.56667,-0.15245 1.34893,-0.26993 2.73102,-0.167645 4.08901,-0.03997 l -0.46316,-0.153694 z"
         sodipodi:nodetypes="sscscsscccccsccsssccscssscscsccs" />
      <path
         style="opacity:1;fill:#00ffff;stroke-width:0.264583"
         id="path769"
         d="m 154.31238,32.512498 c 0.27463,1.51521 0.15867,1.016338 0.30824,2.54831 0.0679,0.963715 0.20183,1.94656 0.0528,2.910559 -0.0613,0.396407 -0.13135,0.562584 -0.25288,0.934016 -0.22245,0.585388 -0.62775,1.059524 -0.98268,1.563907 -0.21783,0.30956 -0.3577,0.54927 -0.55494,0.871281 -0.29111,0.539517 -0.62908,1.122429 -0.67999,1.749489 -0.008,0.09797 -8e-5,0.196598 -1.3e-4,0.294899 0.22807,1.12993 0.99481,1.511964 1.97486,1.932051 1.2544,0.428276 2.57547,0.573537 3.88651,0.709938 0.91531,0.105248 0.80771,0.06619 1.40022,0.238061 0.32208,0.08254 0.5948,0.252828 0.83939,0.472578 0.16938,0.145812 0.32436,0.312912 0.44856,0.499118 0.10138,0.154323 0.16685,0.321871 0.21639,0.498694 0.0197,0.110559 0.0995,0.194549 0.14442,0.294775 0.0405,0.183484 0.078,0.369205 0.10699,0.555623 0.10126,0.482105 0.16768,0.970669 0.23539,1.458375 0.0796,0.679209 0.17984,1.356156 0.31185,2.027211 0.12773,0.642554 0.33816,1.259274 0.62029,1.849149 0.15831,0.272921 0.22927,0.589487 0.39743,0.856814 0.14241,0.226401 0.25096,0.339992 0.42995,0.556328 0.73337,0.893641 1.64411,1.644714 2.65384,2.208808 0.26848,0.149987 0.5495,0.276328 0.82425,0.414491 2.44733,1.054145 6.08265,1.874646 8.66002,2.514911 l 0.43887,0.01066 v 0 c 0,0 -6.19786,-1.456401 -8.63949,-2.504217 -0.27358,-0.136694 -0.55338,-0.261596 -0.82075,-0.41008 -1.00394,-0.557538 -1.91288,-1.300663 -2.63658,-2.192163 -0.17983,-0.218718 -0.27745,-0.321358 -0.42188,-0.546409 -0.17061,-0.265843 -0.24454,-0.580134 -0.39974,-0.854448 -0.28533,-0.585494 -0.50155,-1.196068 -0.62571,-1.837349 -0.13351,-0.669732 -0.2328,-1.3457 -0.31091,-2.024068 -0.064,-0.487754 -0.13029,-0.97605 -0.2295,-1.458087 -0.0262,-0.190434 -0.0652,-0.378119 -0.1001,-0.566208 -0.0364,-0.104238 -0.12108,-0.182817 -0.14639,-0.28988 -0.0506,-0.180928 -0.11213,-0.354791 -0.21524,-0.513334 -0.11852,-0.19313 -0.27988,-0.363379 -0.44969,-0.511982 -0.24209,-0.229 -0.51622,-0.408832 -0.84207,-0.495157 -0.75947,-0.23159 -1.55775,-0.32171 -2.34487,-0.405279 -0.10592,-0.01085 -0.86089,-0.08892 -0.94778,-0.09503 -0.0349,-0.0024 -0.0702,0.01132 -0.10489,0.0064 -0.64738,-0.09126 -1.28452,-0.250195 -1.90655,-0.449326 -0.93612,-0.392927 -1.75269,-0.790382 -1.96576,-1.874853 -2.6e-4,-0.09572 -0.008,-0.191709 -0.001,-0.287147 0.0474,-0.62102 0.37966,-1.198274 0.66689,-1.732849 0.21166,-0.345181 0.32034,-0.534985 0.5549,-0.866683 0.35915,-0.507902 0.76535,-0.987771 0.98722,-1.579165 0.12055,-0.376788 0.18968,-0.543483 0.24927,-0.945301 0.14372,-0.969118 0.003,-1.954342 -0.0685,-2.922087 -0.15169,-1.52935 -0.0255,-1.029261 -0.27514,-2.546104 l -0.48523,-0.06928 z"
         sodipodi:nodetypes="ccscsccccccccccccccscscccscscsccccccccccccccccscscccc" />
      <path
         style="opacity:1;fill:#00ffff;stroke-width:0.264583"
         id="path771"
         d="m 176.46295,91.636215 c -2.32585,-0.928711 -2.38159,-1.074823 -4.62834,-2.18552 -0.57092,-0.282239 -1.12797,-0.591701 -1.69196,-0.887553 -2.14502,-1.250683 -4.20003,-2.671387 -6.0161,-4.371298 -0.36276,-0.339561 -0.71963,-0.686813 -1.05137,-1.05674 -0.31629,-0.352706 -0.59333,-0.738738 -0.88999,-1.108107 -0.23969,-0.39089 -0.50792,-0.765662 -0.71909,-1.172673 -0.88027,-1.696617 -1.26861,-3.579082 -1.49793,-5.457465 -0.11663,-1.181428 -0.11309,-2.369677 -0.0863,-3.5551 0.0804,-0.974831 -0.22299,-1.343494 -0.85411,-2.061321 -0.32833,-0.407702 -1.35261,-1.145398 -1.37381,-1.710614 -0.004,-0.111741 0.0528,-0.217328 0.0791,-0.325993 0.0821,-0.125441 0.15035,-0.261093 0.24623,-0.37633 0.45434,-0.546021 1.07135,-0.971981 1.60787,-1.428761 0.70224,-0.597865 0.7174,-0.623278 1.40199,-1.250362 0.6258,-0.585893 1.19227,-1.228003 1.7513,-1.876195 0.26746,-0.3101 0.56573,-0.685427 0.88853,-0.94588 0.16044,-0.129453 0.34349,-0.228071 0.51523,-0.342106 0.65585,-0.352036 1.35588,-0.676873 2.11693,-0.476308 0.11687,0.0308 0.2066,0.126357 0.31576,0.178231 0.30587,0.145346 0.61884,0.275275 0.92825,0.412914 1.13353,0.444825 2.25811,0.983438 3.45921,1.231715 0.58614,0.12116 1.18015,0.206472 1.77556,0.267591 1.1409,0.11711 1.62653,0.03893 2.77137,-0.03226 0.4922,-0.07227 0.29237,-0.0942 0.78457,-0.166473 l -0.4155,-0.128415 v 0 c 0,0 -0.29405,0.09112 -0.78709,0.16185 -1.40736,0.0827 -1.37518,0.128664 -2.77065,0.02318 -0.30548,-0.0231 -0.61268,-0.04807 -0.91209,-0.112908 -1.19587,-0.25895 -2.32286,-0.76712 -3.44993,-1.22505 -0.97209,-0.440875 -1.01786,-0.517864 -2.1474,-0.760873 -0.2066,-0.04445 -0.42044,-0.0667 -0.63151,-0.05618 -0.53316,0.02659 -1.03387,0.335074 -1.49508,0.563658 -0.17241,0.116845 -0.35615,0.218511 -0.51723,0.350541 -0.32063,0.262795 -0.61773,0.639911 -0.88378,0.95122 -0.55421,0.648477 -1.11629,1.290645 -1.74193,1.872686 -0.6985,0.637945 -0.68758,0.640585 -1.4061,1.247053 -0.5434,0.45866 -1.16975,0.88647 -1.62727,1.438788 -0.0993,0.119822 -0.16942,0.261017 -0.25413,0.391528 -0.0281,0.117565 -0.0878,0.231859 -0.0844,0.352697 0.0163,0.580914 1.04211,1.316517 1.38108,1.730714 0.64494,0.726707 0.91503,1.039463 0.85219,2.025271 -0.0152,1.189086 -0.0166,2.380602 0.10673,3.565007 0.2411,1.884222 0.63639,3.774707 1.51667,5.479087 0.21128,0.409075 0.48036,0.785603 0.72054,1.178406 0.29756,0.371015 0.57485,0.759235 0.89267,1.113044 0.33388,0.371697 0.6942,0.719405 1.05954,1.060233 1.82209,1.699842 3.87931,3.123756 6.02518,4.381831 0.56329,0.296505 1.11943,0.606994 1.68986,0.889516 2.22549,1.102257 2.2611,1.235168 4.55339,2.186007 l 0.49329,0.0177 z"
         sodipodi:nodetypes="cscsscscccccsscsscsscsscccscsscsscsscsscccccscsscsccc" />
      <path
         style="opacity:1;fill:#00ffff;stroke-width:0.264583"
         id="path773"
         d="m 175.73789,66.982085 c 0,-0.159445 -2.30626,-0.07062 -3.88733,-0.09975 -1.54487,0.03681 -3.20209,-0.07805 -4.65374,0.563562 -0.22144,0.09787 -0.42166,0.23802 -0.63249,0.357029 -0.43371,0.324385 -0.87448,0.706152 -1.01372,1.258827 -0.16653,0.661006 0.0474,1.484183 0.14852,2.137164 0.18134,1.190709 0.50616,2.370166 0.44159,3.582156 -0.0744,0.66584 -0.35442,1.28342 -0.51565,1.929432 -0.1572,0.629833 -0.14628,0.706549 -0.22803,1.360712 -0.0435,1.149057 0.11617,2.150801 1.07024,2.922117 0.6492,0.524841 1.36606,0.775864 2.11883,1.104738 2.04404,0.779804 4.24051,0.941938 6.36897,1.364539 0.27723,0.05504 0.55,0.130527 0.825,0.195791 l 0.44372,0.0095 v 0 c -0.5646,-0.117126 -1.12757,-0.242422 -1.6938,-0.351375 -1.84146,-0.354335 -3.73436,-0.513871 -5.49745,-1.200139 -0.74413,-0.321471 -1.46458,-0.571781 -2.10865,-1.085001 -0.94937,-0.756494 -1.10754,-1.744776 -1.0645,-2.880974 0.082,-0.6449 0.0726,-0.731866 0.23016,-1.352764 0.16478,-0.649327 0.45572,-1.267923 0.52759,-1.938644 0.0581,-1.217311 -0.27752,-2.398856 -0.45967,-3.594571 -0.0962,-0.642625 -0.30317,-1.458238 -0.13748,-2.10801 0.1381,-0.541583 0.57063,-0.914402 0.99676,-1.231693 0.20864,-0.116663 0.40686,-0.254289 0.6259,-0.349983 1.45064,-0.633746 3.10364,-0.51485 4.64484,-0.549519 1.5909,0.03116 2.32562,0.09125 3.91666,0.108366 l -0.46627,-0.151501 z"
         sodipodi:nodetypes="scscsccscscsccsscscsccscscccs" />
      <path
         style="opacity:1;fill:#00ffff;stroke-width:0.264583"
         id="path775"
         d="m 175.13893,71.652441 c -0.61429,0.169238 -1.24402,0.28616 -1.85017,0.485286 -0.2293,0.07533 -0.46402,0.142872 -0.67752,0.255442 -0.51308,0.270531 -0.67749,0.502041 -1.07008,0.906576 -0.36758,0.553493 -0.64606,1.135462 -0.40224,1.811184 0.16248,0.450308 0.59837,0.977421 0.95162,1.279739 0.23556,0.201597 0.50993,0.352835 0.7649,0.529252 0.30305,0.152685 0.60611,0.305371 0.90917,0.458057 0,0 0.45526,0.02117 0.45526,0.02117 v 0 c -0.30187,-0.150527 -0.60375,-0.301057 -0.90563,-0.451583 -0.25381,-0.172988 -0.52664,-0.320929 -0.76143,-0.518965 -0.34677,-0.292478 -0.7842,-0.811514 -0.94697,-1.250624 -0.24465,-0.659977 0.0318,-1.229241 0.39272,-1.769028 0.39627,-0.404469 0.54527,-0.619302 1.06313,-0.887058 0.21377,-0.110524 0.4478,-0.177284 0.67673,-0.251473 0.61248,-0.198485 1.24788,-0.31646 1.86969,-0.479838 0,0 -0.46918,-0.138136 -0.46918,-0.138137 z" />
      <path
         style="opacity:1;fill:#00ffff;stroke-width:0.264583"
         id="path777"
         d="m 162.50355,32.473982 c 0.0695,0.782923 -0.059,0.640027 -0.20027,1.417849 -0.10003,0.550918 -0.20708,0.834329 -0.37429,1.36857 -0.19795,0.593024 -0.45984,1.166294 -0.62851,1.769377 -0.1543,0.551707 -0.23776,1.119519 -0.31895,1.685232 -0.0426,0.614865 -0.007,1.278221 0.422,1.768189 0.24411,0.278644 0.47378,0.375238 0.78765,0.554702 0.93548,0.402733 1.97214,0.432792 2.93227,0.753147 0.22488,0.07503 0.44063,0.175062 0.66094,0.262591 0.57582,0.290288 1.09334,0.666504 1.50214,1.169469 0.42902,0.527846 0.7161,1.168932 1.02993,1.766324 0.63299,1.252257 1.39806,2.468621 2.5138,3.351858 0.91224,0.722151 1.35158,0.847585 2.41478,1.342935 0.49928,0.153342 1.98,0.445087 2.47928,0.598429 l 0.43165,0.01281 v 0 c 0,0 -1.97662,-0.440962 -2.47422,-0.592241 -1.0542,-0.48751 -1.49995,-0.615113 -2.40528,-1.327914 -1.11216,-0.875636 -1.87404,-2.086031 -2.49648,-3.335131 -0.31108,-0.601467 -0.59578,-1.245526 -1.02205,-1.778471 -0.40813,-0.51026 -0.92684,-0.89289 -1.50493,-1.190167 -0.2203,-0.08929 -0.43587,-0.191249 -0.66087,-0.267881 -0.95486,-0.325199 -1.98544,-0.356139 -2.92257,-0.741275 -0.30426,-0.167375 -0.54844,-0.268742 -0.78805,-0.531405 -0.43324,-0.474916 -0.46866,-1.129771 -0.4298,-1.734714 0.0784,-0.564375 0.16151,-1.127186 0.31531,-1.677331 0.16859,-0.603041 0.42445,-1.178182 0.62244,-1.771198 0.16733,-0.534289 0.27651,-0.825354 0.37789,-1.376296 0.1437,-0.780841 0.27154,-0.639762 0.21897,-1.427123 l -0.48283,-0.07033 z"
         sodipodi:nodetypes="cscscccscscscccscscscscscscsccc" />
      <path
         style="opacity:1;fill:#00ffff;stroke-width:0.264583"
         id="path779"
         d="m 169.08167,32.623215 c 0.0726,0.821205 0.0832,1.306126 0.10266,2.130004 0.008,0.106516 -0.008,0.217278 0.0227,0.31955 0.16515,0.549826 0.76103,0.924312 1.19973,1.224921 0.60137,0.412078 0.98613,0.613436 1.62724,0.979752 0.99409,0.525769 2.83001,1.3145 3.85977,1.764056 l 0.44686,0.01841 v 0 c 0,0 -2.85882,-1.236493 -3.8507,-1.758788 -0.6473,-0.369824 -1.01031,-0.558705 -1.61662,-0.973537 -0.40393,-0.276371 -1.02715,-0.675347 -1.18563,-1.182405 -0.0317,-0.101354 -0.0169,-0.211706 -0.0254,-0.317558 -0.0243,-0.824532 -0.0399,-1.309367 -0.0927,-2.132653 l -0.48797,-0.07176 z"
         sodipodi:nodetypes="cccscccscsscccc" />
      <path
         style="opacity:1;fill:#00ffff;stroke-width:0.264583"
         id="path781"
         d="m 97.24482,68.82076 c 1.507621,0.646123 1.434898,0.250689 3.00586,0.708969 1.13356,0.434766 2.82595,0.762939 3.68883,1.686372 0.10188,0.109022 0.17544,0.241406 0.26316,0.362111 0.0813,0.193363 0.22707,0.445823 0.17428,0.674979 -0.0747,0.324308 -0.46316,0.803137 -0.64179,1.018977 -0.45327,0.547669 -0.71397,0.770569 -1.23404,1.274352 -1.26012,1.111104 -2.681336,2.169131 -4.171048,2.954705 -0.270669,0.142732 -0.550493,0.267391 -0.825741,0.401085 -0.787988,0.307607 -1.594239,0.564327 -2.41722,0.759634 -0.19485,0.04624 -0.733433,0.168323 -0.969574,0.174234 -0.09859,0.0024 -0.19562,-0.02524 -0.293431,-0.03788 0.09778,-0.03166 0.24447,-0.0046 0.293344,-0.09499 0.06434,-0.119028 -0.0336,-0.27038 -0.02294,-0.405265 0.01423,-0.17998 0.05795,-0.356602 0.0971,-0.532847 0.13531,-0.60907 0.302122,-1.211842 0.437269,-1.82155 0.111297,-0.808995 0.385765,-1.646714 0.290745,-2.473709 -0.01566,-0.136376 -0.0537,-0.269248 -0.08056,-0.40387 -0.204956,-0.79569 -0.473707,-1.580404 -0.512709,-2.406491 0.02484,-0.145344 0.0326,-0.319837 0.137176,-0.440473 0.300855,-0.347065 1.087938,-1.18824 1.507282,-1.264226 0.592312,-0.08643 1.190082,-0.120978 1.787882,-0.136536 l -0.466006,-0.149899 v 0 c 0,0 -1.19108,0.05727 -1.780878,0.146526 -0.44332,0.08368 -1.219865,0.929147 -1.528377,1.306506 -0.106596,0.130381 -0.113676,0.309525 -0.138991,0.464222 0.04312,0.828664 0.315746,1.61472 0.51693,2.414405 0.02676,0.131847 0.06413,0.261982 0.08028,0.395544 0.09958,0.823217 -0.165201,1.658361 -0.277379,2.464006 -0.139202,0.630135 -0.133215,0.625843 -0.292687,1.255226 -0.07793,0.307565 -0.222795,0.787741 -0.253047,1.1098 -0.01368,0.145674 -0.08673,0.33084 0.01204,0.438777 0.161272,0.176223 0.436795,0.193553 0.655196,0.290327 0.09735,0.0083 0.194487,0.02987 0.292065,0.02484 0.237795,-0.01222 0.759865,-0.134509 0.958334,-0.183288 0.82059,-0.201681 1.62527,-0.461192 2.411574,-0.770887 0.275215,-0.13475 0.555123,-0.260318 0.825648,-0.404254 0.641819,-0.341482 1.048544,-0.610566 1.653913,-1.021496 0.87809,-0.596056 1.74609,-1.214371 2.51984,-1.944293 0.53091,-0.511934 0.78134,-0.723884 1.24496,-1.279263 0.19887,-0.238233 0.58339,-0.704136 0.66449,-1.050472 0.0559,-0.238856 -0.092,-0.498179 -0.17585,-0.701064 -0.0888,-0.124394 -0.16291,-0.260615 -0.26626,-0.373179 -0.86348,-0.940517 -2.57221,-1.268688 -3.71612,-1.707962 -1.869286,-0.548201 -1.983226,-0.641135 -3.920402,-0.878557 l 0.466831,0.156845 z"
         sodipodi:nodetypes="scscsscscsccssscsccscccscsccccsssccscsscsccccccs" />
      <path
         style="opacity:1;fill:#00ffff;stroke-width:0.264583"
         id="path783"
         d="m 124.8435,133.95831 c 0,-2.86729 0.36123,-3.06426 1.33852,-5.77318 0.24392,-0.67613 0.5559,-1.32573 0.83386,-1.9886 0.34465,-0.58593 0.61832,-1.21988 1.03395,-1.7578 1.57757,-2.04172 4.30245,-3.36126 6.709,-4.1394 0.48766,-0.15768 0.98983,-0.26635 1.48475,-0.39953 0.52447,-0.0638 1.04622,-0.15653 1.57341,-0.19145 1.31802,-0.0873 2.60226,-0.008 3.91955,0.0719 2.50105,0.15251 4.99843,0.38073 7.49553,0.58582 2.75021,0.17995 5.51218,0.43336 8.26632,0.17536 1.71996,-0.16112 2.69542,-0.37311 4.42198,-0.67911 1.89723,-0.37727 3.65497,-0.74172 5.56558,-1.05993 2.08254,-0.34684 3.38826,-0.57874 5.5074,-0.51583 0.94678,0.0281 1.88587,0.17949 2.82881,0.26924 l -0.35651,-0.11956 v 0 c -0.94459,-0.0885 -1.88543,-0.23882 -2.83378,-0.26561 -2.12514,-0.06 -3.41564,0.17444 -5.50329,0.52272 -1.80594,0.30128 -3.78847,0.70132 -5.58755,1.05297 -1.71498,0.29882 -2.72662,0.51366 -4.43556,0.66993 -2.74721,0.25121 -5.50274,0.003 -8.24586,-0.17457 -2.50183,-0.20385 -5.00377,-0.4342 -7.50928,-0.589 -1.32599,-0.0819 -2.61796,-0.16259 -3.94466,-0.0724 -0.52866,0.0359 -1.05161,0.13113 -1.57742,0.19669 -0.492,0.13541 -0.9913,0.24661 -1.47599,0.40622 -2.40036,0.79042 -5.13346,2.12717 -6.70442,4.16985 -0.41513,0.53978 -0.6867,1.17611 -1.03005,1.76417 -0.27749,0.66432 -0.58768,1.31589 -0.83246,1.99294 -0.98064,2.7124 -1.26346,2.90397 -1.41904,5.77038 l 0.47721,0.0778 z"
         sodipodi:nodetypes="sscsscsccscssccssscscsccsscsccs" />
      <path
         style="opacity:1;fill:#00ffff;stroke-width:0.264583"
         id="path785"
         d="m 140.73448,133.90648 c -0.55596,-1.74187 0.14244,-2.49434 1.10002,-3.95921 0.24395,-0.37318 0.53743,-0.71154 0.80615,-1.06732 0.31816,-0.2927 0.5963,-0.63602 0.95448,-0.87811 1.4379,-0.97186 3.25033,-1.21906 4.93632,-1.29203 1.6365,-0.0708 3.27989,0.0594 4.91141,0.14534 2.68466,0.16009 5.36006,0.45437 8.04673,0.58451 1.52502,0.0739 2.59679,0.1198 4.10216,-0.0699 0.59547,-0.075 1.17936,-0.22354 1.76904,-0.33531 2.46019,-0.67075 4.28183,-1.36918 6.82816,-1.62668 0.68302,-0.0691 1.37053,-0.0824 2.05579,-0.12361 l -0.39084,-0.12438 v 0 c 0,0 -1.37479,0.0564 -2.0588,0.12621 -2.54875,0.26005 -4.37339,0.95953 -6.83773,1.62567 -0.58707,0.11084 -1.16842,0.25813 -1.76122,0.33253 -1.48628,0.18655 -2.5736,0.14326 -4.07813,0.072 -2.6847,-0.1271 -5.35817,-0.41961 -8.0405,-0.58198 -1.65073,-0.0883 -3.28504,-0.2204 -4.93958,-0.14817 -1.70014,0.0742 -3.52635,0.3257 -4.97348,1.31052 -0.35897,0.24428 -0.63642,0.59084 -0.95462,0.88625 -0.26816,0.35786 -0.56056,0.69878 -0.80449,1.07358 -0.96087,1.47635 -1.6686,2.22878 -1.1569,3.99122 l 0.48603,0.0588 z"
         sodipodi:nodetypes="cscsscsscsccsccsccsscsccc" />
      <path
         style="opacity:1;fill:#00ffff;stroke-width:0.264583"
         id="path787"
         d="m 158.1579,133.77094 c 0.19012,-0.15266 0.3698,-0.31932 0.57036,-0.45799 1.31343,-0.90812 2.97377,-1.48734 4.51734,-1.8566 0.47356,-0.11328 0.95486,-0.19132 1.4323,-0.28698 2.81463,-0.48534 5.67773,-0.51244 8.52338,-0.64245 1.87505,-0.17062 0.93807,-0.0408 2.81049,-0.39265 0,0 -0.41837,-0.12747 -0.41837,-0.12747 v 0 c -1.87332,0.34621 -0.93571,0.21862 -2.81242,0.38568 -2.84485,0.13011 -5.7073,0.16167 -8.52051,0.65034 -0.47928,0.0963 -0.96248,0.17481 -1.43784,0.28887 -1.83021,0.43915 -3.66938,1.12019 -5.13547,2.32624 0,0 0.47074,0.11301 0.47074,0.11301 z" />
    </g>
  </g>
</svg>
